<?xml version="1.0" encoding="utf-8"?>
<!-- Generator: Adobe Illustrator 19.1.0, SVG Export Plug-In . SVG Version: 6.00 Build 0)  -->
<svg version="1.1" id="Layer_1" xmlns="http://www.w3.org/2000/svg" xmlns:xlink="http://www.w3.org/1999/xlink" x="0px" y="0px"
	 viewBox="0 0 80 80" enable-background="new 0 0 80 80" xml:space="preserve">
<path fill="#1A1400" d="M77.7,69.7L62.6,54.5C66.6,49,69,42.3,69,35C69,16.8,54.2,2,36,2S3,16.8,3,35s14.8,33,33,33
	c7.3,0,14.1-2.4,19.5-6.4l15.1,15.1c0.8,0.8,2,0.8,2.8,0l4.2-4.2C78.5,71.7,78.5,70.4,77.7,69.7z"/>
<path fill="#FFD12E" d="M36,60c-13.8,0-25-11.2-25-25s11.2-25,25-25s25,11.2,25,25S49.8,60,36,60z"/>
<ellipse fill="#1A1400" cx="29" cy="27" rx="3" ry="7"/>
<ellipse fill="#1A1400" cx="43" cy="27" rx="3" ry="7"/>
<path fill="#1A1400" d="M51.7,38.3C46.8,39.4,41.5,40,36,40s-10.8-0.6-15.7-1.7c-1.5-0.3-2.8,1.1-2.3,2.5C20.4,48.5,27.6,54,36,54
	s15.6-5.5,18.1-13.2C54.5,39.4,53.2,38,51.7,38.3z"/>
<path fill="#FFFFFF" d="M49,44.3c-0.3,0.4-0.8,0.7-1.3,0.8C43.9,45.7,40,46,36,46s-7.9-0.3-11.7-0.9c-0.5-0.1-1-0.4-1.3-0.8
	c-0.6-0.8-1.1-1.7-1.6-2.7C26.2,42.5,31.1,43,36,43s9.8-0.5,14.5-1.4C50.1,42.6,49.6,43.5,49,44.3z"/>
</svg>
